<svg xmlns="http://www.w3.org/2000/svg" viewBox="0 0 348 348" fill="none">
  <g stroke="#000" stroke-width="2">
    <path d="M5.079 5.776h336.913v337.67H5.08z"/>
    <path d="M282.734 40.554c0-8.376 6.966-15.165 15.56-15.165 4.126 0 8.084 1.597 11.001 4.441 2.918 2.844 4.558 6.702 4.558 10.724 0 8.376-6.966 15.165-15.56 15.165-8.593 0-15.559-6.79-15.559-15.165zM13 153h60v90H13zM78 153h60v90H78zM143 153h60v90h-60zM208 153h60v90h-60zM273 153h60v90h-60zM13 314h60v21H13zM78 314h60v21H78zM143 314h60v21h-60zM208 314h60v21h-60zM273 314h60v21h-60z"/>
  </g>
  <g fill="#000">
    <path d="M38.90312 53.66667l-8.875-22.90625h3.28125l5.95313 16.64062q.71875 2 1.20312 3.75.53125-1.875 1.23438-3.75l6.1875-16.64062h3.09375L42.0125 53.66667zM54.24687 53.66667V30.76042h3.03125v22.90625zM62.60625 53.66667V30.76042h7.89062q2.67188 0 4.07813.32812 1.96875.45313 3.35937 1.64063 1.8125 1.53125 2.70313 3.92187.90625 2.375.90625 5.4375 0 2.60938-.60938 4.625-.60937 2.01563-1.5625 3.34375-.95312 1.3125-2.09375 2.07813-1.125.75-2.73437 1.14062-1.59375.39063-3.67188.39063zm3.03125-2.70313h4.89062q2.26563 0 3.54688-.42187 1.29687-.42188 2.0625-1.1875 1.07812-1.07813 1.67187-2.89063.60938-1.82812.60938-4.42187 0-3.59375-1.1875-5.51563-1.17188-1.9375-2.85938-2.59375-1.21875-.46875-3.92187-.46875h-4.8125zM85.79375 53.66667V30.76042h16.5625v2.70312H88.825v7.01563h12.67187v2.6875H88.825v7.79687h14.0625v2.70313zM106.18437 42.51042q0-5.70313 3.0625-8.92188 3.0625-3.23437 7.90625-3.23437 3.17188 0 5.71875 1.51562 2.54688 1.51563 3.875 4.23438 1.34375 2.70312 1.34375 6.14062 0 3.48438-1.40625 6.23438T122.7 52.65104q-2.57813 1.40625-5.5625 1.40625-3.23438 0-5.78125-1.5625-2.54688-1.5625-3.85938-4.26562-1.3125-2.70313-1.3125-5.71875zm3.125.04687q0 4.14062 2.21875 6.53125 2.23438 2.375 5.59375 2.375 3.42188 0 5.625-2.40625 2.21875-2.40625 2.21875-6.82813 0-2.79687-.95312-4.875-.9375-2.09375-2.76563-3.23437-1.8125-1.15625-4.07812-1.15625-3.21875 0-5.54688 2.21875-2.3125 2.20312-2.3125 7.375z"/>
    <path d="M140.85625 53.66667V30.76042h8.64062q2.28125 0 3.48438.21875 1.6875.28125 2.82812 1.07812 1.14063.78125 1.82813 2.20313.70312 1.42187.70312 3.125 0 2.92187-1.85937 4.95312-1.85938 2.01563-6.71875 2.01563h-5.875v9.3125zm3.03125-12.01563h5.92187q2.9375 0 4.17188-1.09375 1.23437-1.09375 1.23437-3.07812 0-1.4375-.73437-2.45313-.71875-1.03125-1.90625-1.35937-.76563-.20313-2.82813-.20313h-5.85937z"/>
    <path d="M161.30937 42.51042q0-5.70313 3.0625-8.92188 3.0625-3.23437 7.90625-3.23437 3.17188 0 5.71875 1.51562 2.54688 1.51563 3.875 4.23438 1.34375 2.70312 1.34375 6.14062 0 3.48438-1.40625 6.23438t-3.98437 4.17187q-2.57813 1.40625-5.5625 1.40625-3.23438 0-5.78125-1.5625-2.54688-1.5625-3.85938-4.26562-1.3125-2.70313-1.3125-5.71875zm3.125.04687q0 4.14062 2.21875 6.53125 2.23438 2.375 5.59375 2.375 3.42188 0 5.625-2.40625 2.21875-2.40625 2.21875-6.82813 0-2.79687-.95312-4.875-.9375-2.09375-2.76563-3.23437-1.8125-1.15625-4.07812-1.15625-3.21875 0-5.54688 2.21875-2.3125 2.20312-2.3125 7.375zM186.98125 53.66667V30.76042h3.03125v11.35937l11.375-11.35937h4.10937l-9.60937 9.28125 10.03125 13.625h-4l-8.15625-11.59375-3.75 3.65625v7.9375zM208.54375 53.66667V30.76042h16.5625v2.70312H211.575v7.01563h12.67187v2.6875H211.575v7.79687h14.0625v2.70313zM229.90312 53.66667V30.76042h10.15625q3.0625 0 4.65625.625 1.59375.60937 2.54688 2.17187.95312 1.5625.95312 3.45313 0 2.4375-1.57812 4.10937-1.57813 1.67188-4.875 2.125 1.20312.57813 1.82812 1.14063 1.32813 1.21875 2.51563 3.04687l3.98437 6.23438h-3.8125l-3.03125-4.76563q-1.32812-2.0625-2.1875-3.15625-.85937-1.09375-1.54687-1.53125-.67188-.4375-1.375-.60937-.51563-.10938-1.6875-.10938h-3.51563v10.17188zm3.03125-12.79688H239.45q2.07812 0 3.25-.42187 1.17187-.4375 1.78125-1.375.60937-.95313.60937-2.0625 0-1.625-1.1875-2.67188-1.17187-1.04687-3.71875-1.04687h-7.25zM91.48255 83.17057V66.09896h3.61849v1.35807h-1.97786V81.8125h1.97786v1.35807zM105.8289 79.46094l-5.17708-13.36198h1.91406l3.47266 9.70703q.41927 1.16667.70182 2.1875.3099-1.09375.72005-2.1875l3.60938-9.70703h1.80469l-5.23177 13.36198zM111.62578 79.46094l5.13151-13.36198h1.90495l5.46875 13.36198h-2.01433l-1.55859-4.04688h-5.58724l-1.46745 4.04688zm3.85547-5.48698h4.52995l-1.39453-3.70052q-.63803-1.6862-.94792-2.77083-.25521 1.28515-.72005 2.55208zM125.58932 79.46094V66.09896h5.92448q1.78646 0 2.71615.36458.92968.35547 1.48567 1.26693.55599.91146.55599 2.01432 0 1.42188-.92057 2.39714-.92057.97526-2.84375 1.23958.70182.33724 1.06641.66536.77474.71094 1.46744 1.77735l2.32422 3.63672h-2.22396l-1.76822-2.77995q-.77474-1.20313-1.27605-1.84115-.5013-.63802-.90234-.89323-.39193-.2552-.80208-.35546-.30078-.0638-.98438-.0638h-2.05078v5.93359zm1.76823-7.46485h3.80078q1.21224 0 1.89584-.24609.68359-.2552 1.03906-.80208.35547-.556.35547-1.20313 0-.94791-.69271-1.5586-.6836-.61067-2.16927-.61067h-4.22917zM139.35234 79.46094V66.09896h1.76823v13.36198zM142.76119 79.46094l5.13151-13.36198h1.90495l5.46875 13.36198h-2.01432l-1.55859-4.04688h-5.58724l-1.46745 4.04688zm3.85547-5.48698h4.52995l-1.39453-3.70052q-.63802-1.6862-.94792-2.77083-.25521 1.28515-.72005 2.55208zM156.67916 79.46094V66.09896h1.8138l7.01823 10.49088V66.09896h1.69532v13.36198h-1.81381l-7.01822-10.5v10.5zM173.58672 79.46094V67.67578h-4.40235v-1.57682h10.59115v1.57682h-4.42057v11.78516zM188.98125 83.17057h-3.61849V81.8125h1.97786V67.45703h-1.97786v-1.35807h3.61849zM89.60416 272.26624V256.9954h5.76042q1.52083 0 2.32292.14583 1.125.1875 1.88541.71875.76042.52084 1.21875 1.46875.46875.94792.46875 2.08334 0 1.94792-1.23958 3.30208-1.23958 1.34375-4.47917 1.34375H91.625v6.20834zm2.02084-8.01042h3.94791q1.95834 0 2.78125-.72917.82292-.72916.82292-2.05208 0-.95833-.48958-1.63542-.47917-.6875-1.27084-.90625-.51041-.13542-1.88541-.13542H91.625zM103.77083 272.26624V256.9954h2.02083v13.46875h7.52084v1.80209zM114.05208 272.26624l5.86458-15.27084h2.17709l6.25 15.27084h-2.30209l-1.78125-4.625H117.875l-1.67709 4.625zm4.40625-6.27084h5.17708l-1.59375-4.22916q-.72916-1.92709-1.08333-3.16667-.29167 1.46875-.82292 2.91667zM132.69792 272.26624v-6.46875l-5.88542-8.80209h2.45833l3.01042 4.60417q.83333 1.29167 1.55208 2.58333.6875-1.19791 1.66667-2.69791l2.95833-4.48959h2.35417l-6.09375 8.80209v6.46875zM147.42708 268.26624l1.96875-.16667q.21875 1.4375 1.01042 2.16667.80208.71875 1.92708.71875 1.35417 0 2.29167-1.02084.9375-1.02083.9375-2.70833 0-1.60417-.90625-2.53125-.89583-.92708-2.35417-.92708-.90625 0-1.63541.41666-.72917.40625-1.14584 1.0625l-1.76041-.22916 1.47916-7.84376h7.59375v1.79167h-6.09375l-.82291 4.10417q1.375-.95833 2.88541-.95833 2 0 3.375 1.38541 1.375 1.38542 1.375 3.5625 0 2.07292-1.20833 3.58334-1.46875 1.85416-4.01042 1.85416-2.08333 0-3.40625-1.16666-1.3125-1.16667-1.5-3.09375zM176.875 266.91207l2.02083.51042q-.63542 2.48958-2.29167 3.80208-1.64583 1.30208-4.03125 1.30208-2.46875 0-4.02083-1-1.54167-1.01041-2.35417-2.91666-.80208-1.90625-.80208-4.09375 0-2.38542.90625-4.15626.91667-1.78125 2.59375-2.69791 1.6875-.92709 3.70833-.92709 2.29167 0 3.85417 1.16667t2.17708 3.28125l-1.98958.46875q-.53125-1.66667-1.54167-2.42708-1.01041-.76042-2.54166-.76042-1.76042 0-2.94792.84375-1.17708.84375-1.65625 2.27084-.47917 1.41666-.47917 2.92708 0 1.94792.5625 3.40625.57292 1.44792 1.77084 2.16667 1.19791.71875 2.59375.71875 1.69791 0 2.875-.97917 1.17708-.97917 1.59375-2.90625zM181.42709 272.26624V256.9954h6.77083q2.04167 0 3.10417.41667 1.0625.40625 1.69791 1.44791.63542 1.04167.63542 2.30209 0 1.625-1.05208 2.73958-1.05209 1.11459-3.25 1.41667.80208.38542 1.21875.76042.88541.8125 1.67708 2.03125l2.65625 4.15625h-2.54167l-2.02083-3.17709q-.88542-1.375-1.45833-2.10416-.57292-.72917-1.03125-1.02084-.44792-.29166-.91667-.40625-.34375-.0729-1.125-.0729h-2.34375v6.78125zm2.02083-8.53125h4.34375q1.38542 0 2.16667-.28125.78125-.29167 1.1875-.91667.40625-.63542.40625-1.375 0-1.08334-.79167-1.78125-.78125-.69792-2.47917-.69792h-4.83333zM196.85417 272.26624V256.9954h11.04166v1.80208H198.875v4.67709h8.44792v1.79167H198.875v5.19791h9.375v1.80209zM211.0625 272.26624V256.9954h5.26042q1.78125 0 2.71875.21875 1.3125.30208 2.23958 1.09375 1.20833 1.02083 1.80208 2.61459.60417 1.58333.60417 3.625 0 1.73958-.40625 3.08333-.40625 1.34375-1.04167 2.22917-.63541.875-1.39583 1.38541-.75.5-1.82292.76042-1.0625.26042-2.44791.26042zm2.02083-1.80209h3.26042q1.51042 0 2.36458-.28125.86459-.28125 1.375-.79166.71875-.71875 1.11459-1.92709.40625-1.21875.40625-2.94791 0-2.39584-.79167-3.67709-.78125-1.29167-1.90625-1.72917-.8125-.3125-2.61458-.3125h-3.20834zM226.82291 272.26624V256.9954h2.02084v15.27084zM236.28125 272.26624v-13.46876H231.25v-1.80208h12.10417v1.80208h-5.05208v13.46876zM244.75001 267.35999l1.90625-.16667q.13541 1.14583.625 1.88542.5.72916 1.54166 1.1875 1.04167.44791 2.34375.44791 1.15625 0 2.04167-.34375.88542-.34375 1.3125-.9375.4375-.60416.4375-1.3125 0-.71875-.41667-1.25-.41666-.54166-1.375-.90625-.61458-.23958-2.71875-.73958-2.10416-.51042-2.94791-.95833-1.09375-.57292-1.63542-1.41667-.53125-.85417-.53125-1.90625 0-1.15625.65625-2.15625.65625-1.01042 1.91667-1.53125 1.26041-.52084 2.80208-.52084 1.69792 0 2.98958.55209 1.30209.54166 2 1.60416.69792 1.0625.75 2.40626l-1.9375.14583q-.15625-1.44792-1.0625-2.1875-.89583-.73959-2.65625-.73959-1.83333 0-2.67708.67709-.83333.66666-.83333 1.61458 0 .82292.59375 1.35417.58333.53125 3.04166 1.09375 2.46875.55208 3.38542.96875 1.33333.61458 1.96875 1.5625.63542.9375.63542 2.16667 0 1.21875-.69792 2.30208-.69792 1.07292-2.01042 1.67708-1.30208.59375-2.9375.59375-2.07291 0-3.47916-.60416-1.39584-.60417-2.19792-1.8125-.79167-1.21875-.83333-2.75zM14.5625 300.59958v-15.27083h5.72917q1.75 0 2.80208.46875 1.0625.45833 1.65625 1.42708.60417.95833.60417 2.01042 0 .97916-.53125 1.84375-.53125.86458-1.60417 1.39583 1.38542.40625 2.125 1.38542.75.97916.75 2.3125 0 1.07291-.45833 2-.44792.91666-1.11459 1.41666-.66666.5-1.67708.76042-1 .25-2.45833.25zm2.02083-8.85417h3.30209q1.34375 0 1.92708-.17708.77083-.22917 1.15625-.76042.39583-.53125.39583-1.33333 0-.76042-.36458-1.33333-.36458-.58334-1.04167-.79167-.67708-.21875-2.32291-.21875h-3.05209zm0 7.05209h3.80209q.97916 0 1.375-.0729.69791-.125 1.16666-.41667.46875-.29166.77084-.84375Q24 296.90166 24 296.1725q0-.85417-.4375-1.47917-.4375-.63542-1.21875-.88542-.77083-.26041-2.22917-.26041h-3.53125zM28.9375 300.59958v-15.27083h11.04167v1.80208h-9.02084v4.67708h8.44792v1.79167h-8.44792v5.19792h9.375v1.80208zM47.03125 300.59958v-13.46875H42v-1.80208h12.10417v1.80208h-5.05209v13.46875zM60.96875 296.59958l1.96875-.16667q.21875 1.4375 1.01042 2.16667.80208.71875 1.92708.71875 1.35417 0 2.29167-1.02083.9375-1.02084.9375-2.70834 0-1.60416-.90625-2.53125-.89583-.92708-2.35417-.92708-.90625 0-1.63541.41667-.72917.40625-1.14584 1.0625l-1.76041-.22917 1.47916-7.84375H70.375v1.79167h-6.09375l-.82291 4.10416q1.375-.95833 2.88541-.95833 2 0 3.375 1.38542 1.375 1.38541 1.375 3.5625 0 2.07291-1.20833 3.58333Q68.41667 300.86 65.875 300.86q-2.08333 0-3.40625-1.16667-1.3125-1.16667-1.5-3.09375zM213.04166 295.24541l2.02084.51042q-.63542 2.48958-2.29167 3.80208-1.64583 1.30209-4.03125 1.30209-2.46875 0-4.02083-1-1.54167-1.01042-2.35417-2.91667-.80208-1.90625-.80208-4.09375 0-2.38542.90625-4.15625.91666-1.78125 2.59375-2.69792 1.6875-.92708 3.70833-.92708 2.29167 0 3.85417 1.16667 1.5625 1.16666 2.17708 3.28125l-1.98958.46875q-.53125-1.66667-1.54167-2.42709-1.01042-.76041-2.54167-.76041-1.76041 0-2.94791.84375-1.17709.84375-1.65625 2.27083-.47917 1.41667-.47917 2.92708 0 1.94792.5625 3.40625.57292 1.44792 1.77083 2.16667 1.19792.71875 2.59375.71875 1.69792 0 2.875-.97917 1.17709-.97916 1.59375-2.90625zM217.59375 300.59958v-15.27083h6.77083q2.04167 0 3.10417.41666 1.0625.40625 1.69791 1.44792.63542 1.04167.63542 2.30208 0 1.625-1.05208 2.73959-1.05209 1.11458-3.25 1.41666.80208.38542 1.21875.76042.88541.8125 1.67708 2.03125l2.65625 4.15625h-2.54167l-2.02083-3.17708q-.88542-1.375-1.45833-2.10417-.57292-.72917-1.03125-1.02083-.44792-.29167-.91667-.40625-.34375-.0729-1.125-.0729h-2.34375v6.78125zm2.02083-8.53125h4.34375q1.38542 0 2.16667-.28125.78125-.29167 1.1875-.91667.40625-.63541.40625-1.375 0-1.08333-.79167-1.78125-.78125-.69791-2.47917-.69791h-4.83333zM233.02083 300.59958v-15.27083h11.04167v1.80208h-9.02084v4.67708h8.44792v1.79167h-8.44792v5.19792h9.375v1.80208zM247.22917 300.59958v-15.27083h5.26041q1.78125 0 2.71875.21875 1.3125.30208 2.23959 1.09375 1.20833 1.02083 1.80208 2.61458.60417 1.58333.60417 3.625 0 1.73958-.40625 3.08333-.40625 1.34375-1.04167 2.22917-.63542.875-1.39583 1.38542-.75.5-1.82292.76041-1.0625.26042-2.44792.26042zm2.02083-1.80208h3.26042q1.51041 0 2.36458-.28125.86458-.28125 1.375-.79167.71875-.71875 1.11458-1.92708.40625-1.21875.40625-2.94792 0-2.39583-.79166-3.67708-.78125-1.29167-1.90625-1.72917-.8125-.3125-2.61459-.3125H249.25zM262.98958 300.59958v-15.27083h2.02083v15.27083zM272.44792 300.59958v-13.46875h-5.03125v-1.80208h12.10416v1.80208h-5.05208v13.46875zM293.44791 300.59958h-1.875v-11.94792q-.67708.64584-1.78125 1.29167-1.09375.64583-1.96875.96875v-1.8125q1.57292-.73958 2.75-1.79167 1.17709-1.05208 1.66667-2.04166h1.20833zM298.26041 293.06833q0-2.70833.55209-4.35417.5625-1.65625 1.65625-2.55208 1.10416-.89583 2.77083-.89583 1.22917 0 2.15625.5.92708.48958 1.53125 1.42708.60417.92708.94792 2.27083.34375 1.33334.34375 3.60417 0 2.6875-.55209 4.34375-.55208 1.64583-1.65625 2.55208-1.09375.89584-2.77083.89584-2.20833 0-3.46875-1.58334-1.51042-1.90625-1.51042-6.20833zm1.92709 0q0 3.76042.875 5.01042.88541 1.23958 2.17708 1.23958t2.16667-1.25q.88541-1.25.88541-5 0-3.77083-.88541-5.01042-.875-1.23958-2.1875-1.23958-1.29167 0-2.0625 1.09375-.96875 1.39583-.96875 5.15625zM310.13541 293.06833q0-2.70833.55209-4.35417.5625-1.65625 1.65625-2.55208 1.10416-.89583 2.77083-.89583 1.22917 0 2.15625.5.92708.48958 1.53125 1.42708.60417.92708.94792 2.27083.34375 1.33334.34375 3.60417 0 2.6875-.55209 4.34375-.55208 1.64583-1.65625 2.55208-1.09375.89584-2.77083.89584-2.20833 0-3.46875-1.58334-1.51042-1.90625-1.51042-6.20833zm1.92709 0q0 3.76042.875 5.01042.88541 1.23958 2.17708 1.23958t2.16667-1.25q.88541-1.25.88541-5 0-3.77083-.88541-5.01042-.875-1.23958-2.1875-1.23958-1.29167 0-2.0625 1.09375-.96875 1.39583-.96875 5.15625zM322.01041 293.06833q0-2.70833.55209-4.35417.5625-1.65625 1.65625-2.55208 1.10416-.89583 2.77083-.89583 1.22917 0 2.15625.5.92708.48958 1.53125 1.42708.60417.92708.94792 2.27083.34375 1.33334.34375 3.60417 0 2.6875-.55209 4.34375-.55208 1.64583-1.65625 2.55208-1.09375.89584-2.77083.89584-2.20833 0-3.46875-1.58334-1.51042-1.90625-1.51042-6.20833zm1.92709 0q0 3.76042.875 5.01042.88541 1.23958 2.17708 1.23958t2.16667-1.25q.88541-1.25.88541-5 0-3.77083-.88541-5.01042-.875-1.23958-2.1875-1.23958-1.29167 0-2.0625 1.09375-.96875 1.39583-.96875 5.15625z"/>
  </g>
</svg>
